<svg width="910" height="940" viewBox="0 0 910 940" fill="none" xmlns="http://www.w3.org/2000/svg">
<path d="M469.42 302.74C430.06 302.74 398.14 270.83 398.14 231.47C398.14 192.11 430.04 160.2 469.4 160.2H469.42C508.78 160.2 540.69 192.11 540.69 231.47C540.7 270.83 508.78 302.74 469.42 302.74ZM638.12 372.29C622.03 372.29 605.85 366.87 592.53 355.77C589.8 353.5 587.23 351 584.87 348.35C558.72 318.93 561.37 273.88 590.79 247.73C618.91 222.73 661.31 224.05 687.84 249.91C714.34 275.62 716.93 317.81 692.91 346.64C678.82 363.55 658.54 372.29 638.12 372.29ZM300.85 372.84C285.23 372.84 269.51 367.73 256.37 357.22C225.64 332.63 220.65 287.78 245.24 257.04C248.99 252.35 253.34 248.13 258.14 244.53C289.63 220.91 334.31 227.3 357.92 258.78C379.67 287.78 375.98 327.95 350.67 352.57C337.04 365.93 319.02 372.84 300.85 372.84ZM231.27 541.53C191.91 541.53 160 509.63 160 470.27V470.24C160 430.88 191.91 398.97 231.27 398.97C270.63 398.97 302.54 430.88 302.54 470.24C302.54 509.6 270.64 541.53 231.27 541.53ZM638.57 709.91C616.9 709.91 595.49 700.07 581.49 681.4C559.74 652.4 563.43 612.23 588.74 587.61C614.12 562.78 654.61 560.22 683.05 582.97C713.78 607.56 718.77 652.41 694.18 683.15C690.43 687.84 686.08 692.06 681.27 695.66C668.45 705.27 653.44 709.91 638.57 709.91ZM301.32 710.09C283.12 710.09 265.08 703.16 251.42 689.76C226.17 665.14 222.51 625.01 244.24 596.03C267.86 564.54 312.53 558.16 344.02 581.78C348.83 585.38 353.17 589.6 356.92 594.29C381.51 625.03 376.53 669.88 345.79 694.47C332.66 704.98 316.93 710.09 301.32 710.09ZM469.94 779.81H469.92C430.56 779.81 398.65 747.9 398.65 708.54C398.65 669.17 430.56 637.27 469.92 637.27C509.28 637.27 541.2 669.18 541.2 708.54C541.2 747.9 509.31 779.81 469.94 779.81Z" fill="#F37F65"/>
</svg>
