<?xml version="1.0" encoding="UTF-8"?>
<svg width="111.91" height="107.64" version="1.1" viewBox="0 0 111.91 107.64" xml:space="preserve" xmlns="http://www.w3.org/2000/svg" xmlns:cc="http://creativecommons.org/ns#" xmlns:dc="http://purl.org/dc/elements/1.1/" xmlns:rdf="http://www.w3.org/1999/02/22-rdf-syntax-ns#"><metadata><rdf:RDF><cc:Work rdf:about=""><dc:format>image/svg+xml</dc:format><dc:type rdf:resource="http://purl.org/dc/dcmitype/StillImage"/><dc:title/></cc:Work></rdf:RDF></metadata><g transform="matrix(1.3333 0 0 -1.3333 -656.09 108.31)"><g transform="scale(.1)"><path d="m5340.9 88.652c-178.61 0-327.48 143.12-327.48 320.62 0 150.45 106.97 274.53 248.36 308.87 15.58-204.1 183.9-362.95 397.85-372.77-30.18-146.72-162.11-256.72-318.73-256.72zm324.57 340.2c-164.47 7.519-300.14 136.17-311.39 298.44 166.04-6.465 301.35-134.61 311.39-298.44zm-324.57 383.5c-234.73 0-420.24-177.5-420.24-403.07 0-225.59 185.51-404.2 420.24-404.2 233.63 0 419.12 178.61 419.12 404.2 0 225.57-185.49 403.07-419.12 403.07" fill="#34b36b"/></g></g></svg>
