<svg width="1610" height="626" viewBox="0 0 1610 626" fill="none" xmlns="http://www.w3.org/2000/svg">
<path fill-rule="evenodd" clip-rule="evenodd" d="M275.29 192.38C275.29 212.28 291.43 228.42 311.34 228.42C331.24 228.42 347.38 212.29 347.37 192.38C347.37 172.48 331.24 156.34 311.33 156.34H311.32C291.42 156.34 275.29 172.47 275.29 192.38ZM373.59 255.24C380.33 260.85 388.51 263.59 396.64 263.59C406.97 263.59 417.22 259.17 424.35 250.63C436.5 236.04 435.19 214.71 421.79 201.71C408.37 188.63 386.93 187.97 372.71 200.61C357.83 213.83 356.49 236.61 369.72 251.49C370.91 252.83 372.21 254.09 373.59 255.24ZM203.61 255.97C210.25 261.29 218.2 263.87 226.1 263.87C235.28 263.87 244.39 260.38 251.31 253.62C264.1 241.17 265.97 220.85 254.97 206.19C243.03 190.27 220.43 187.03 204.51 198.98C202.08 200.8 199.88 202.93 197.98 205.31C185.55 220.86 188.07 243.53 203.61 255.97ZM154.87 313.14C154.87 333.04 171 349.17 190.91 349.17C210.82 349.17 226.95 333.03 226.95 313.13C226.95 293.23 210.81 277.09 190.91 277.09C171.01 277.09 154.87 293.23 154.87 313.13V313.14ZM368.01 419.9C375.09 429.34 385.91 434.32 396.87 434.32C404.39 434.32 411.98 431.97 418.46 427.12C420.89 425.29 423.09 423.16 424.99 420.79C437.43 405.24 434.9 382.57 419.36 370.13C404.98 358.63 384.5 359.92 371.67 372.48C358.88 384.92 357.01 405.24 368.01 419.9ZM201.09 424.13C208 430.91 217.13 434.41 226.33 434.41C234.23 434.41 242.18 431.82 248.82 426.52C264.37 414.08 266.89 391.4 254.45 375.86C252.55 373.49 250.35 371.36 247.92 369.53C232 357.59 209.4 360.82 197.46 376.74C186.48 391.38 188.33 411.68 201.09 424.13ZM311.59 469.66H311.6C331.5 469.66 347.63 453.53 347.64 433.62C347.64 413.72 331.49 397.58 311.59 397.58C291.69 397.58 275.55 413.72 275.55 433.62C275.55 453.52 291.68 469.66 311.59 469.66ZM724.81 259.21V374.84C724.81 384.44 731.42 391.3 740.76 391.3C749.96 391.3 756.44 384.43 756.44 374.84V259.21C756.44 249.49 749.96 242.75 740.76 242.75C731.42 242.75 724.81 249.49 724.81 259.21ZM760.46 205.94C760.46 194.92 752.29 186.49 740.89 186.49C729.48 186.49 721.06 194.91 721.06 205.94C721.06 217.09 729.48 225.51 740.89 225.51C752.29 225.51 760.46 217.09 760.46 205.94ZM825.13 374.84C825.13 384.43 818.65 391.3 809.44 391.3C800.11 391.3 793.5 384.43 793.5 374.84V259.21C793.5 249.49 800.11 242.75 809.44 242.75C818.65 242.75 825.13 249.49 825.13 259.21V261.02C833.17 248.71 846.65 241.84 862.46 241.84C874 241.84 883.2 245.6 889.04 251.04C894.61 256.35 897.6 262.84 897.6 269.84C897.6 280.08 891.77 287.21 881.52 287.21C876.08 287.21 871.54 283.58 868.69 280.21C864.8 275.8 859.36 272.3 852.1 272.3C837.19 272.3 825.14 287.21 825.14 312.23V374.84H825.13ZM1207.09 374.84V259.21C1207.09 249.62 1200.48 242.75 1191.14 242.74C1181.94 242.74 1175.46 249.48 1175.46 259.2V323.5C1175.46 347.09 1161.2 363.17 1138 363.17C1117.26 363.17 1104.42 350.99 1104.42 325.71V259.08C1104.42 249.88 1097.94 242.75 1088.61 242.75C1079.4 242.75 1072.79 249.75 1072.79 259.08V331.16C1072.79 370.3 1095.86 392.21 1130.99 392.21C1150.57 392.21 1166.64 385.08 1175.46 371.86V374.84C1175.46 384.43 1181.94 391.3 1191.14 391.3C1200.48 391.3 1207.09 384.43 1207.09 374.84ZM1244.64 374.84V215.01C1244.64 205.42 1251.25 198.68 1260.58 198.68C1269.79 198.68 1276.27 205.42 1276.27 215.01V374.85C1276.27 384.44 1269.79 391.31 1260.58 391.31C1251.25 391.3 1244.64 384.44 1244.64 374.84ZM1333.82 317.12C1333.82 342.39 1354.31 362.88 1379.58 362.88C1404.86 362.88 1425.35 342.39 1425.34 317.12C1425.34 291.85 1404.86 271.36 1379.58 271.36C1354.31 271.36 1333.82 291.85 1333.82 317.12ZM1304.29 317.12C1304.29 275.54 1338 241.83 1379.58 241.83C1421.16 241.83 1454.87 275.54 1454.87 317.12C1454.87 358.7 1421.16 392.41 1379.58 392.41C1338 392.41 1304.29 358.7 1304.29 317.12ZM983.53 362.88C956.54 362.88 935 339.51 938.06 311.9C940.38 290.96 957.41 273.95 978.34 271.65C996.79 269.62 1013.32 278.58 1022.26 292.8C1026.03 298.81 1033.81 300.86 1040.1 297.58L1041.94 296.62C1049.07 292.91 1051.47 283.9 1047.2 277.1C1032.11 253.1 1003.91 238.21 972.59 242.61C939.09 247.33 912.47 274.84 908.71 308.47C903.63 353.93 939.08 392.42 983.51 392.42C1010.61 392.42 1034.31 378.07 1047.55 356.58C1051.76 349.74 1049.41 340.78 1042.29 337.07L1040.46 336.11C1033.95 332.72 1026.16 335.19 1022.26 341.41C1014.2 354.3 999.88 362.88 983.53 362.88ZM589.02 311.9C585.96 339.51 607.5 362.88 634.49 362.88C650.84 362.88 665.16 354.3 673.23 341.41C677.13 335.19 684.92 332.72 691.43 336.11L693.27 337.07C700.39 340.78 702.74 349.74 698.53 356.58C685.29 378.07 661.59 392.42 634.49 392.42C590.06 392.42 554.62 353.93 559.69 308.47C563.44 274.84 590.07 247.33 623.57 242.61C654.89 238.21 683.09 253.1 698.18 277.1C702.45 283.9 700.04 292.91 692.92 296.62L691.07 297.58C684.78 300.86 677 298.81 673.23 292.8C664.29 278.58 647.76 269.62 629.31 271.65C608.37 273.95 591.34 290.96 589.02 311.9Z" fill="#F37F65"/>
</svg>
